<?xml version="1.0" encoding="UTF-8" standalone="no"?>
<!DOCTYPE svg PUBLIC "-//W3C//DTD SVG 1.1//EN"
 "http://www.w3.org/Graphics/SVG/1.1/DTD/svg11.dtd">
<!-- Generated by graphviz version 2.40.1 (20161225.0304)
 -->
<!-- Title: G Pages: 1 -->
<svg width="365pt" height="44pt"
 viewBox="0.00 0.00 364.92 43.60" xmlns="http://www.w3.org/2000/svg" xmlns:xlink="http://www.w3.org/1999/xlink">
<g id="graph0" class="graph" transform="scale(1 1) rotate(0) translate(4 39.6)">
<title>G</title>
<polygon fill="#ffffff" stroke="transparent" points="-4,4 -4,-39.6 360.923,-39.6 360.923,4 -4,4"/>
<!-- 1 -->
<g id="node1" class="node">
<title>1</title>
<ellipse fill="#000000" stroke="#000000" cx="1.8" cy="-1.8" rx="1.8" ry="1.8"/>
</g>
<!-- 2 -->
<g id="node2" class="node">
<title>2</title>
<ellipse fill="#000000" stroke="#000000" cx="91.9791" cy="-1.8" rx="1.8" ry="1.8"/>
</g>
<!-- 1&#45;&gt;2 -->
<g id="edge1" class="edge">
<title>1&#45;&gt;2</title>
<path fill="none" stroke="#000000" d="M3.6835,-1.8C13.4024,-1.8 58.2644,-1.8 80.0466,-1.8"/>
<polygon fill="#000000" stroke="#000000" points="80.106,-5.3001 90.1059,-1.8 80.1059,1.6999 80.106,-5.3001"/>
<text text-anchor="middle" x="46.8896" y="-4.6" font-family="Helvetica,sans-Serif" font-size="14.00" fill="#000000">litani init</text>
</g>
<!-- 3 -->
<g id="node3" class="node">
<title>3</title>
<ellipse fill="#000000" stroke="#000000" cx="216.1648" cy="-1.8" rx="1.8" ry="1.8"/>
</g>
<!-- 2&#45;&gt;3 -->
<g id="edge2" class="edge">
<title>2&#45;&gt;3</title>
<path fill="none" stroke="#000000" d="M94.1346,-1.8C107.199,-1.8 176.1541,-1.8 204.2429,-1.8"/>
<polygon fill="#000000" stroke="#000000" points="204.3252,-5.3001 214.3251,-1.8 204.3251,1.6999 204.3252,-5.3001"/>
<text text-anchor="middle" x="151.472" y="-4.6" font-family="Helvetica,sans-Serif" font-size="14.00" fill="#000000">litani add&#45;job</text>
</g>
<!-- 3&#45;&gt;3 -->
<g id="edge3" class="edge">
<title>3&#45;&gt;3</title>
<path fill="none" stroke="#000000" d="M214.3631,-2.6025C200.1893,-9.4111 200.7898,-21.6 216.1648,-21.6 227.4559,-21.6 230.7789,-15.0264 226.1341,-8.8377"/>
<polygon fill="#000000" stroke="#000000" points="228.039,-5.8886 217.9666,-2.6025 223.7913,-11.4525 228.039,-5.8886"/>
<text text-anchor="middle" x="216.1648" y="-24.4" font-family="Helvetica,sans-Serif" font-size="14.00" fill="#000000">litani add&#45;job</text>
</g>
<!-- 4 -->
<g id="node4" class="node">
<title>4</title>
<ellipse fill="#000000" stroke="#000000" cx="355.123" cy="-1.8" rx="1.8" ry="1.8"/>
</g>
<!-- 3&#45;&gt;4 -->
<g id="edge4" class="edge">
<title>3&#45;&gt;4</title>
<path fill="none" stroke="#000000" d="M218.1292,-1.8C231.6923,-1.8 311.8155,-1.8 342.8516,-1.8"/>
<polygon fill="#000000" stroke="#000000" points="343.0304,-5.3001 353.0304,-1.8 343.0303,1.6999 343.0304,-5.3001"/>
<text text-anchor="middle" x="288.2439" y="-4.6" font-family="Helvetica,sans-Serif" font-size="14.00" fill="#000000">litani run&#45;builds</text>
</g>
</g>
</svg>
